<mxfile host="app.diagrams.net" modified="2024-07-22T04:39:51.358Z" agent="Mozilla/5.0 (Windows NT 10.0; Win64; x64) AppleWebKit/537.36 (KHTML, like Gecko) Chrome/126.0.0.0 Safari/537.36" etag="s9KyAe4rPtoRprSLf3De" version="24.7.1" type="github">
  <diagram name="Page-1" id="9AGfDl3BzURnccEknEte">
    <mxGraphModel dx="1313" dy="1854" grid="1" gridSize="10" guides="1" tooltips="1" connect="1" arrows="1" fold="1" page="1" pageScale="1" pageWidth="850" pageHeight="1100" math="0" shadow="0">
      <root>
        <mxCell id="0" />
        <mxCell id="1" parent="0" />
        <mxCell id="iEev2yGXQLcQOngh1b3Z-3" value="" style="edgeStyle=orthogonalEdgeStyle;rounded=0;orthogonalLoop=1;jettySize=auto;html=1;" edge="1" parent="1" source="iEev2yGXQLcQOngh1b3Z-1" target="iEev2yGXQLcQOngh1b3Z-2">
          <mxGeometry relative="1" as="geometry" />
        </mxCell>
        <mxCell id="iEev2yGXQLcQOngh1b3Z-15" value="" style="edgeStyle=orthogonalEdgeStyle;rounded=0;orthogonalLoop=1;jettySize=auto;html=1;" edge="1" parent="1" source="iEev2yGXQLcQOngh1b3Z-1" target="iEev2yGXQLcQOngh1b3Z-14">
          <mxGeometry relative="1" as="geometry" />
        </mxCell>
        <mxCell id="iEev2yGXQLcQOngh1b3Z-1" value="Entity" style="whiteSpace=wrap;html=1;align=center;fillColor=#e1d5e7;strokeColor=#9673a6;" vertex="1" parent="1">
          <mxGeometry x="180" y="130" width="100" height="40" as="geometry" />
        </mxCell>
        <mxCell id="iEev2yGXQLcQOngh1b3Z-5" value="" style="edgeStyle=orthogonalEdgeStyle;rounded=0;orthogonalLoop=1;jettySize=auto;html=1;" edge="1" parent="1" source="iEev2yGXQLcQOngh1b3Z-2" target="iEev2yGXQLcQOngh1b3Z-4">
          <mxGeometry relative="1" as="geometry" />
        </mxCell>
        <mxCell id="iEev2yGXQLcQOngh1b3Z-7" value="" style="edgeStyle=orthogonalEdgeStyle;rounded=0;orthogonalLoop=1;jettySize=auto;html=1;" edge="1" parent="1" source="iEev2yGXQLcQOngh1b3Z-2" target="iEev2yGXQLcQOngh1b3Z-6">
          <mxGeometry relative="1" as="geometry" />
        </mxCell>
        <mxCell id="iEev2yGXQLcQOngh1b3Z-9" value="" style="edgeStyle=orthogonalEdgeStyle;rounded=0;orthogonalLoop=1;jettySize=auto;html=1;" edge="1" parent="1" source="iEev2yGXQLcQOngh1b3Z-2" target="iEev2yGXQLcQOngh1b3Z-8">
          <mxGeometry relative="1" as="geometry">
            <Array as="points">
              <mxPoint x="410" y="220" />
              <mxPoint x="720" y="220" />
            </Array>
          </mxGeometry>
        </mxCell>
        <mxCell id="iEev2yGXQLcQOngh1b3Z-2" value="" style="rhombus;whiteSpace=wrap;html=1;fillColor=#fff2cc;strokeColor=#d6b656;" vertex="1" parent="1">
          <mxGeometry x="370" y="110" width="80" height="80" as="geometry" />
        </mxCell>
        <mxCell id="iEev2yGXQLcQOngh1b3Z-4" value="" style="whiteSpace=wrap;html=1;fillColor=#e1d5e7;strokeColor=#9673a6;" vertex="1" parent="1">
          <mxGeometry x="350" y="-40" width="120" height="60" as="geometry" />
        </mxCell>
        <mxCell id="iEev2yGXQLcQOngh1b3Z-6" value="" style="whiteSpace=wrap;html=1;fillColor=#e1d5e7;strokeColor=#9673a6;" vertex="1" parent="1">
          <mxGeometry x="510" y="120" width="120" height="60" as="geometry" />
        </mxCell>
        <mxCell id="iEev2yGXQLcQOngh1b3Z-8" value="" style="whiteSpace=wrap;html=1;fillColor=#e1d5e7;strokeColor=#9673a6;" vertex="1" parent="1">
          <mxGeometry x="660" y="260" width="120" height="60" as="geometry" />
        </mxCell>
        <mxCell id="iEev2yGXQLcQOngh1b3Z-17" value="" style="edgeStyle=orthogonalEdgeStyle;rounded=0;orthogonalLoop=1;jettySize=auto;html=1;" edge="1" parent="1" source="iEev2yGXQLcQOngh1b3Z-14" target="iEev2yGXQLcQOngh1b3Z-16">
          <mxGeometry relative="1" as="geometry" />
        </mxCell>
        <mxCell id="iEev2yGXQLcQOngh1b3Z-19" value="" style="edgeStyle=orthogonalEdgeStyle;rounded=0;orthogonalLoop=1;jettySize=auto;html=1;" edge="1" parent="1" source="iEev2yGXQLcQOngh1b3Z-14" target="iEev2yGXQLcQOngh1b3Z-18">
          <mxGeometry relative="1" as="geometry" />
        </mxCell>
        <mxCell id="iEev2yGXQLcQOngh1b3Z-14" value="" style="rhombus;whiteSpace=wrap;html=1;fillColor=#fff2cc;strokeColor=#d6b656;" vertex="1" parent="1">
          <mxGeometry x="270" y="320" width="80" height="80" as="geometry" />
        </mxCell>
        <mxCell id="iEev2yGXQLcQOngh1b3Z-16" value="" style="whiteSpace=wrap;html=1;fillColor=#e1d5e7;strokeColor=#9673a6;" vertex="1" parent="1">
          <mxGeometry x="630" y="400" width="120" height="60" as="geometry" />
        </mxCell>
        <mxCell id="iEev2yGXQLcQOngh1b3Z-21" value="" style="edgeStyle=orthogonalEdgeStyle;rounded=0;orthogonalLoop=1;jettySize=auto;html=1;" edge="1" parent="1" source="iEev2yGXQLcQOngh1b3Z-18" target="iEev2yGXQLcQOngh1b3Z-20">
          <mxGeometry relative="1" as="geometry" />
        </mxCell>
        <mxCell id="iEev2yGXQLcQOngh1b3Z-23" value="" style="edgeStyle=orthogonalEdgeStyle;rounded=0;orthogonalLoop=1;jettySize=auto;html=1;" edge="1" parent="1" source="iEev2yGXQLcQOngh1b3Z-18" target="iEev2yGXQLcQOngh1b3Z-22">
          <mxGeometry relative="1" as="geometry" />
        </mxCell>
        <mxCell id="iEev2yGXQLcQOngh1b3Z-18" value="" style="whiteSpace=wrap;html=1;fillColor=#e1d5e7;strokeColor=#9673a6;" vertex="1" parent="1">
          <mxGeometry x="250" y="430" width="120" height="60" as="geometry" />
        </mxCell>
        <mxCell id="iEev2yGXQLcQOngh1b3Z-20" value="" style="whiteSpace=wrap;html=1;fillColor=#e1d5e7;strokeColor=#9673a6;" vertex="1" parent="1">
          <mxGeometry x="20" y="380" width="120" height="60" as="geometry" />
        </mxCell>
        <mxCell id="iEev2yGXQLcQOngh1b3Z-25" value="" style="edgeStyle=orthogonalEdgeStyle;rounded=0;orthogonalLoop=1;jettySize=auto;html=1;" edge="1" parent="1" source="iEev2yGXQLcQOngh1b3Z-22" target="iEev2yGXQLcQOngh1b3Z-24">
          <mxGeometry relative="1" as="geometry" />
        </mxCell>
        <mxCell id="iEev2yGXQLcQOngh1b3Z-22" value="" style="rhombus;whiteSpace=wrap;html=1;fillColor=#fff2cc;strokeColor=#d6b656;" vertex="1" parent="1">
          <mxGeometry x="345" y="590" width="80" height="80" as="geometry" />
        </mxCell>
        <mxCell id="iEev2yGXQLcQOngh1b3Z-24" value="" style="whiteSpace=wrap;html=1;fillColor=#e1d5e7;strokeColor=#9673a6;" vertex="1" parent="1">
          <mxGeometry x="300" y="720" width="120" height="60" as="geometry" />
        </mxCell>
      </root>
    </mxGraphModel>
  </diagram>
</mxfile>
